<mxfile host="app.diagrams.net" modified="2024-03-20T05:48:33.004Z" agent="Mozilla/5.0 (Windows NT 10.0; Win64; x64) AppleWebKit/537.36 (KHTML, like Gecko) Chrome/122.0.0.0 Safari/537.36" etag="1HbGOCyqgD1bZp3okQ8V" version="24.0.5" type="github">
  <diagram name="PÃ¡gina-1" id="m3cVflKxdJyNVDrWMoIz">
    <mxGraphModel dx="1050" dy="522" grid="1" gridSize="10" guides="1" tooltips="1" connect="1" arrows="1" fold="1" page="1" pageScale="1" pageWidth="827" pageHeight="1169" math="0" shadow="0">
      <root>
        <mxCell id="0" />
        <mxCell id="1" parent="0" />
        <mxCell id="3kSHjHLS8RRXTuVrcPDt-2" value="&amp;lt;&amp;lt;subsystem&amp;gt;&amp;gt; Online CRM" style="swimlane;whiteSpace=wrap;html=1;" vertex="1" parent="1">
          <mxGeometry x="274" y="150" width="280" height="260" as="geometry" />
        </mxCell>
      </root>
    </mxGraphModel>
  </diagram>
</mxfile>
